HIERARCHY
ROOT Hips
{
  OFFSET -17.7726 93.5861 -452.985
  CHANNELS 6 Xposition Yposition Zposition Zrotation Xrotation Yrotation
  JOINT RightUpLeg
  {
    OFFSET -8.9458 -8.66707 0.101652
    CHANNELS 3 Zrotation Xrotation Yrotation
    JOINT RightLeg
    {
      OFFSET 0 -44.4227 1.3727
      CHANNELS 3 Zrotation Xrotation Yrotation
      JOINT RightFoot
      {
        OFFSET 0.253549 -42.0924 -1.46059
        CHANNELS 3 Zrotation Xrotation Yrotation
        JOINT RightToes
        {
          OFFSET 0.04 -4.41509 8.4991
          CHANNELS 3 Zrotation Xrotation Yrotation
          End Site
          {
            OFFSET -0.08 -0.137448 9.77979
          }
        }
      }
    }
  }
  JOINT Spine
  {
    OFFSET 0 11.8905 0
    CHANNELS 3 Zrotation Xrotation Yrotation
    JOINT Spine1
    {
      OFFSET 0 25.6574 0.127663
      CHANNELS 3 Zrotation Xrotation Yrotation
      JOINT HEad
      {
        OFFSET 0 8.73416 0.011341
        CHANNELS 3 Zrotation Xrotation Yrotation
        End Site
        {
          OFFSET -0.29 12.7742 2.51395
        }
      }
      JOINT LeftShoulder1
      {
        OFFSET 8.99 -0.362252 -0.22
        CHANNELS 3 Zrotation Xrotation Yrotation
        JOINT LeftArm
        {
          OFFSET 10.2827 -0.00338 0.322123
          CHANNELS 3 Zrotation Xrotation Yrotation
          JOINT LeftForeArm
          {
            OFFSET 32.7669 0.099144 -1.42434
            CHANNELS 3 Zrotation Xrotation Yrotation
            JOINT LeftHand
            {
              OFFSET 27.5643 0.085362 1.02216
              CHANNELS 3 Zrotation Xrotation Yrotation
              End Site
              {
                OFFSET 16.7443 -0.6 1.50291
              }
            }
          }
        }
      }
      JOINT RightShoulder
      {
        OFFSET -8.99 -0.362252 -0.22
        CHANNELS 3 Zrotation Xrotation Yrotation
        JOINT RightArm
        {
          OFFSET -10.2827 -0.00338 0.322123
          CHANNELS 3 Zrotation Xrotation Yrotation
          JOINT RightForeArm
          {
            OFFSET -32.8971 0.099144 -1.42434
            CHANNELS 3 Zrotation Xrotation Yrotation
            JOINT RightHand
            {
              OFFSET -27.4921 0.085362 1.02216
              CHANNELS 3 Zrotation Xrotation Yrotation
              End Site
              {
                OFFSET -16.6312 -0.6 1.50291
              }
            }
          }
        }
      }
    }
  }
  JOINT LeftUpLeg
  {
    OFFSET 8.9458 -8.66707 0.101652
    CHANNELS 3 Zrotation Xrotation Yrotation
    JOINT LeftLeg
    {
      OFFSET 0 -44.4227 1.3727
      CHANNELS 3 Zrotation Xrotation Yrotation
      JOINT LeftFoot
      {
        OFFSET -0.253549 -42.0924 -1.46059
        CHANNELS 3 Zrotation Xrotation Yrotation
        JOINT LeftToes
        {
          OFFSET -0.04 -4.41509 8.4991
          CHANNELS 3 Zrotation Xrotation Yrotation
          End Site
          {
            OFFSET 0.08 -0.047448 9.77979
          }
        }
      }
    }
  }
}
MOTION
Frames:	14
Frame Time:	0.0166667
-18.2016 94.5887 -445.958 1.40812 2.52783 -123.869 -20.6604 -3.95526 4.16523 -1.40279 25.5443 -1.46544 24.385 -1.04238 0.719061 0.0462048 0.000533403 0.662642 -14.1191 13.054 -10.1561 0.00217044 -0.000446601 0.0191299 -1.58887 7.66631 49.1169 -3.97569e-015 1.59028e-015 -3.18055e-015 18.5475 -53.3143 -9.30474 -14.6545 11.9456 -47.5223 -2.8529 -3.00651 -2.79105 31.0363 4.08607 16.2999 45.2133 -22.1165 63.5516 45.5706 57.7087 85.239 -7.42348 18.8449 2.54763 20.2002 -26.3072 3.99188 2.91495 32.3068 6.25992 4.23867 -3.07055 0.288103 -1.18446e-009 1.5602e-007 -4.87132e-009 
-19.053 95.2273 -445.161 1.9736 2.44109 -124.771 -20.5118 -3.58053 3.46599 -1.33975 24.1661 -1.94507 24.2006 -1.25584 0.774874 0.0462048 0.000533403 0.662642 -13.9131 12.2678 -9.70052 -0.000479548 0.00017475 0.0184899 -2.34666 7.45859 48.9032 -7.95139e-016 -2.38542e-015 -0 25.6835 -63.534 3.17191 -24.5099 23.2946 -52.4918 3.30265 17.2014 -4.67208 30.6088 4.69748 16.595 45.3622 -22.351 62.6391 45.3209 57.8647 85.9547 -8.04149 18.7378 3.84171 19.8883 -25.7476 3.97857 2.50915 31.384 7.00949 5.99221 -3.05156 0.386065 -1.18447e-009 1.5602e-007 -4.87132e-009 
-19.9619 95.8271 -444.384 2.51411 2.33706 -125.64 -20.358 -3.21274 2.79246 -1.24092 22.8335 -2.47262 24.1604 -1.44867 0.825291 0.0462048 0.000533403 0.662642 -13.6567 11.498 -9.20398 -0.00287515 0.000528137 0.00801016 -3.11214 7.30066 48.6073 0 0 -0 43.8556 -72.2928 26.3094 -36.9778 34.9004 -52.8175 6.41124 25.8444 -5.55067 30.1214 5.29307 16.8809 45.5596 -22.6298 61.7201 45.1072 58.0484 86.6571 -8.31318 18.6715 4.56203 19.556 -25.1942 3.96791 2.03527 30.4583 7.75561 7.78094 -3.02118 0.484734 -1.18446e-009 1.5602e-007 -4.87132e-009 
-20.9023 96.3673 -443.632 3.04583 2.22749 -126.467 -20.331 -2.72183 2.15138 -1.05061 21.3225 -3.74487 25.7903 -1.50926 0.868642 0.0462048 0.000533403 0.662642 -13.3573 10.7503 -8.66942 -0.00446968 0.000729234 0.00764018 -3.86199 7.19779 48.2064 2.38542e-015 0 6.36111e-015 82.767 -76.1158 69.7663 -54.1762 44.6375 -46.1158 7.97978 29.1948 -5.10852 29.5485 5.84903 17.1526 45.8575 -22.9768 60.8414 44.9865 58.2368 87.3038 -8.36481 18.6515 4.98414 19.2314 -24.6958 3.96194 1.54958 29.6072 8.4668 9.56269 -3.01062 0.585262 -1.18447e-009 1.5602e-007 -4.87131e-009 
-21.8813 96.8862 -442.886 3.58147 2.12497 -127.24 -20.2367 -2.28681 1.51308 -0.814473 19.9605 -4.98426 26.6674 -1.63483 0.976421 0.0462048 0.000533403 0.662642 -13.0148 10.0284 -8.09915 -0.00427968 0.000319228 0.00767014 -4.58164 7.15409 47.7093 2.38542e-015 3.18055e-015 -3.18055e-015 119.713 -71.9084 111.042 -75.0294 50.2301 -32.438 8.07449 28.6783 -4.61145 28.9288 6.3719 17.3976 46.2487 -23.3783 60.028 44.9529 58.4477 87.9002 -8.26579 18.6849 5.24681 18.8995 -24.1968 3.9506 1.07424 28.722 9.13702 11.3522 -2.9746 0.682258 -1.18447e-009 1.5602e-007 -4.87132e-009 
-22.8414 97.2439 -442.171 4.02274 2.07419 -127.957 -20.2292 -1.85943 0.920589 -0.0477551 18.4164 -6.32833 26.9819 -1.841 1.04619 0.0462048 0.000533403 0.662642 -12.2154 9.52943 -7.32257 0.0217208 0.019558 0.0191414 -5.44145 7.0616 46.3941 -2.38542e-015 7.95139e-016 -3.18055e-015 138.851 -64.7358 134.641 -96.3866 49.7655 -15.6001 9.59426 27.3583 -6.43464 27.9666 6.71761 16.854 48.3684 -23.5641 60.104 45.371 58.304 87.7991 -13.1606 19.7622 9.46476 18.6017 -23.5566 3.50402 -0.170065 27.6539 11.06 13.5749 -2.90665 0.801958 -1.18447e-009 1.5602e-007 -4.87131e-009 
-23.8054 97.6754 -441.432 4.35465 2.08211 -128.605 -19.8077 -2.07252 0.314223 1.80323 17.8321 -7.61424 20.1055 -2.79184 1.03694 0.0462048 0.000533403 0.662642 -11.0316 9.27506 -6.31781 0.0210509 0.020248 0.0199415 -6.3354 6.97952 44.2995 -1.98785e-015 1.98785e-015 -0 148.914 -57.2048 149.861 -113.9 45.148 -1.1465 10.732 25.0887 -9.27621 26.7485 6.90493 15.6529 52.0247 -23.5047 60.8715 46.1353 57.8838 87.0907 -19.9486 20.4981 15.7513 18.3509 -22.5836 2.62665 -1.94845 25.9836 14.0512 16.1534 -2.61768 0.91225 -1.18448e-009 1.5602e-007 -4.87131e-009 
-24.7251 98.0707 -440.678 3.99019 2.30641 -128.972 -19.3339 -1.92339 -0.299394 4.70682 17.3875 -8.89933 8.59402 -3.81342 0.580365 0.0462048 0.000533403 0.662642 -9.76374 9.85351 -5.16842 0.0177909 0.020018 0.0200316 -7.22155 6.89775 41.4365 -2.38542e-015 0 1.27222e-014 154.603 -50.3947 161.743 -124.646 39.127 8.6791 10.5902 21.5364 -13.1398 25.2818 6.89538 13.9289 57.0249 -23.1287 62.1271 47.1007 57.181 85.9094 -20.8124 21.1318 18.394 17.7749 -21.0367 1.2877 -3.83775 24.0509 17.6035 18.9375 -2.22372 1.01584 -1.18447e-009 1.5602e-007 -4.87132e-009 
-25.4735 98.2466 -439.932 1.46446 3.06091 -128.305 -18.9524 -0.405142 -0.200504 10.4871 16.9688 -10.8083 -12.9215 -3.76592 -0.799257 0.0462048 0.000533403 0.662642 -8.23926 12.9981 -3.83 0.0594927 0.0689438 0.0607755 -8.01772 6.6351 36.0561 -3.37934e-015 -4.17448e-015 3.18055e-015 160.212 -49.0093 175.636 -126.391 39.0686 12.0324 13.0042 33.1153 -8.85276 22.9315 6.02513 11.1198 65.8103 -21.9964 64.3424 48.2661 55.6618 83.4494 -8.68997 22.6094 12.8638 16.1507 -18.2046 -1.5232 -6.62391 22.2977 23.4605 22.3323 -1.97517 1.18735 -1.18447e-009 1.5602e-007 -4.87131e-009 
-26.0725 98.3248 -439.158 -0.92817 3.76273 -127.576 -20.0719 0.351832 1.0838 18.1557 16.4506 -14.0513 -14.6202 -3.63254 -0.889847 0.0462048 0.000533403 0.662642 -6.6102 15.6184 -2.63254 -0.0119703 0.00468072 -0.00694924 -8.72951 6.83208 30.9625 1.98785e-016 9.93923e-017 -1.27222e-014 166.996 -51.8591 -170.144 -123.539 43.3899 10.25 13.0509 28.5736 -11.4877 20.7153 5.68599 8.23133 76.6883 -20.171 66.4121 48.7333 53.8924 80.771 -0.850929 23.4537 11.0304 15.001 -15.6192 -4.19112 -9.69127 20.1928 30.9606 26.0332 -1.55971 1.34741 -1.18446e-009 1.5602e-007 -4.87132e-009 
-26.4833 98.1919 -438.41 -3.17712 4.39365 -126.804 -20.0835 0.322649 3.11351 25.9359 15.2814 -18.4927 -27.1649 -2.91176 -1.6026 0.0462048 0.000533403 0.662642 -4.95077 17.723 -1.57816 -0.0174906 0.00504144 -0.0140491 -9.44583 7.30322 26.0627 -7.95139e-016 -2.5842e-015 3.18055e-015 172.029 -53.9734 -159.282 -121.123 46.8083 7.69586 14.2488 33.4713 -9.06579 18.5976 5.66427 5.30026 88.5587 -17.5594 67.7874 47.9724 52.2203 78.3918 13.5004 23.5334 4.61901 14.442 -13.5916 -6.68763 -12.9713 18.2531 39.8095 29.7431 -1.25525 1.48098 -1.18446e-009 1.5602e-007 -4.87131e-009 
-26.7962 97.979 -437.705 -5.27661 4.93578 -125.995 -20.6368 0.0658154 5.07717 31.821 14.5759 -22.5671 -32.3593 -2.53643 -1.85228 0.0462048 0.000533403 0.662642 -3.32888 19.3324 -0.659067 -0.0174906 0.00504144 -0.0140491 -10.0673 8.05606 21.4972 2.38542e-015 7.95139e-016 6.36111e-015 175.85 -55.897 -150.868 -118.903 49.4305 4.78271 14.2895 29.5665 -10.8576 16.6048 5.99966 2.46749 100.693 -14.3168 68.3504 46.6177 54.8955 74.3441 19.0396 23.1663 3.06807 14.2264 -11.7399 -9.08948 -15.8113 15.8779 49.4604 33.3143 -0.776017 1.49603 -1.18447e-009 1.5602e-007 -4.87131e-009 
-27.0289 97.7083 -437.085 -7.21692 5.3788 -125.152 -21.6651 -0.265584 6.97293 35.6592 14.6443 -26.2978 -31.6155 -2.49385 -1.7753 0.0462048 0.000533403 0.662642 -1.93157 20.8579 -0.0220824 -0.0174906 0.00504144 -0.0140491 -10.4524 8.62826 17.4651 -0 -1.98785e-015 -0 178.696 -57.4568 -144.657 -116.677 55.8063 4.35336 15.8065 26.3359 -11.299 15.039 6.35032 0.180111 108.201 -12.4719 68.3162 45.9386 57.0103 71.9289 24.5198 22.288 0.470243 14.1472 -10.019 -11.431 -17.8041 13.4955 57.4972 36.4505 -0.120725 1.36546 -1.18445e-009 1.5602e-007 -4.87131e-009 
-27.2578 97.2658 -436.566 -8.99394 5.72139 -124.27 -22.1766 -0.679501 8.66994 36.4167 17.0358 -29.5764 -31.5338 -2.15494 -1.71238 0.0462048 0.000533403 0.662642 -0.757233 22.2695 0.373254 -0.0174906 0.00504144 -0.0140491 -10.6367 9.03813 13.9795 1.59028e-015 -3.57812e-015 3.18055e-015 -179.219 -58.7972 -140.143 -114.234 59.3924 2.15248 16.1009 20.8119 -13.3671 13.7534 6.68172 -1.64548 112.675 -11.4703 68.2218 45.7057 58.4533 70.4585 25.8935 21.9005 0.375342 14.3258 -8.69139 -13.6871 -19.7585 11.6324 64.3778 39.2312 0.20343 1.26014 -1.18446e-009 1.5602e-007 -4.87131e-009 
